<?xml version="1.0" encoding="utf-8"?>
<!-- Generator: Adobe Illustrator 26.0.0, SVG Export Plug-In . SVG Version: 6.00 Build 0)  -->
<svg version="1.1" id="Camada_1" xmlns="http://www.w3.org/2000/svg" xmlns:xlink="http://www.w3.org/1999/xlink" x="0px" y="0px"
	 viewBox="0 0 133 133" style="enable-background:new 0 0 133 133;" xml:space="preserve">
<style type="text/css">
	.st0{fill:#30440D;}
	.st1{fill:#E6F4CD;}
</style>
<path class="st0" d="M36.1,49c1.6-2.6,3.5-5,5.6-7.1L23.2,22.1c-4.6,4.3-8.6,9.4-11.7,14.9L36.1,49z"/>
<path class="st0" d="M81.8,35c2.8,1.3,5.4,2.9,7.8,4.7L108.1,20c-4.9-4.1-10.4-7.5-16.4-10L81.8,35z"/>
<path class="st0" d="M124.3,41L99.7,53c1.2,2.7,2,5.5,2.5,8.5l27.3-2.5C128.7,52.6,126.9,46.5,124.3,41"/>
<path class="st0" d="M97.9,49.5l24.6-12c-3-5.5-6.9-10.5-11.5-14.9L92.5,42.4C94.6,44.5,96.4,46.9,97.9,49.5"/>
<path class="st0" d="M31.6,66.5c0-0.5,0-1.1,0-1.6L4.3,62.5c-0.1,1.3-0.1,2.7-0.1,4c0,5.1,0.7,10.1,1.9,14.9L32.4,74
	C31.9,71.6,31.6,69.1,31.6,66.5"/>
<path class="st0" d="M94.5,88.5c-1.9,2.3-4.2,4.4-6.7,6.1l14.4,22.8c5.4-3.5,10.1-7.9,14.1-12.8L94.5,88.5z"/>
<path class="st0" d="M102.6,66.5c0,2.5-0.3,5-0.8,7.4l26.4,7.4c1.2-4.7,1.8-9.7,1.8-14.8c0-1.3,0-2.5-0.1-3.8l-27.3,2.5
	C102.5,65.7,102.6,66.1,102.6,66.5"/>
<path class="st0" d="M40.1,89l-21.9,16.2c4.1,4.9,8.9,9.2,14.3,12.6L46.9,95C44.4,93.3,42.1,91.3,40.1,89"/>
<path class="st0" d="M32,61.1c0.5-3,1.4-5.9,2.6-8.6L10,40.5c-2.7,5.6-4.6,11.8-5.4,18.2L32,61.1z"/>
<path class="st0" d="M98.9,119.5L84.5,96.7c-2.6,1.4-5.4,2.6-8.4,3.3l5.1,26.4C87.5,125,93.5,122.7,98.9,119.5"/>
<path class="st0" d="M100.7,77.6c-1,2.7-2.3,5.3-3.8,7.7l21.9,16.2c3.6-5,6.4-10.5,8.3-16.5L100.7,77.6z"/>
<path class="st0" d="M72.2,100.8c-1.7,0.2-3.4,0.4-5.1,0.4c-1.4,0-2.8-0.1-4.1-0.2l-5.1,26.4c3,0.4,6.1,0.7,9.2,0.7
	c3.5,0,6.9-0.3,10.2-0.8L72.2,100.8z"/>
<path class="st0" d="M69.3,31.9c3,0.2,6,0.8,8.8,1.7l9.9-25c-5.9-2-12.1-3.2-18.6-3.4v26.7H69.3z"/>
<path class="st0" d="M59,100.3c-3.1-0.7-6-1.8-8.7-3.2l-14.4,22.8c5.6,3.1,11.6,5.4,18.1,6.8L59,100.3z"/>
<path class="st0" d="M56.4,33.5c2.9-0.9,5.9-1.4,9-1.6V5.1c-6.6,0.2-12.9,1.3-18.9,3.4L56.4,33.5z"/>
<path class="st0" d="M37.7,85.9c-1.7-2.5-3.2-5.3-4.2-8.2L7.1,85.1c2,6.2,5,11.9,8.7,17L37.7,85.9z"/>
<path class="st0" d="M45.1,39.3c2.3-1.8,4.9-3.3,7.6-4.5l-9.9-25c-5.9,2.4-11.4,5.7-16.2,9.7L45.1,39.3z"/>
<g>
	<path class="st1" d="M42.8,27.2C42.9,27.1,43,27,43,27c0-0.1,0-0.1,0-0.2c0-0.1-0.1-0.1-0.2-0.1c-0.1,0-0.2,0-0.3,0.1
		c-0.3,0.2-0.6,0.3-1,0.3s-0.7-0.2-1.1-0.5c0,0-0.1-0.1-0.2-0.1s-0.1,0-0.2,0c-0.1,0-0.1,0.1-0.1,0.2c0,0.1,0,0.1,0.1,0.2
		c0.4,0.5,0.9,0.7,1.4,0.7C42,27.5,42.4,27.4,42.8,27.2z M43.6,28.3c-0.8,0.5-1.7,0.7-2.7,0.5c-0.9-0.2-1.7-0.8-2.2-1.6
		c-0.4-0.6-0.6-1.4-0.5-2.5c0-1,0.3-2.3,0.7-3.8c1.5,0.2,2.8,0.5,3.7,0.9s1.6,0.9,2,1.6c0.5,0.9,0.7,1.8,0.5,2.7
		C44.9,27.1,44.4,27.8,43.6,28.3z M43.2,27.8c0.7-0.4,1.1-1,1.3-1.8c0.2-0.8,0-1.5-0.4-2.2c-0.3-0.5-0.9-0.9-1.7-1.3
		c-0.8-0.4-1.8-0.6-3-0.8c-0.3,1.2-0.5,2.2-0.5,3.1c0,0.9,0.1,1.6,0.4,2.1c0.5,0.7,1.1,1.2,1.8,1.3C41.8,28.3,42.5,28.2,43.2,27.8z"
		/>
</g>
<g>
	<path class="st1" d="M55.8,22.6L55,17l1.6-0.2l-0.2-1.6l3.9-0.6l0.5,3.3l1.6-0.2l0.6,3.9L59.9,22l-0.2-1.6l-1.1,0.2l0.2,1.6
		L55.8,22.6z M56.3,21.9l1-0.2l-0.2-1l-1,0.2L56.3,21.9z M56.1,20.2l1-0.2L57,19l-1,0.2L56.1,20.2z M55.8,18.6l1-0.2l-0.2-1l-1,0.2
		L55.8,18.6z M57.7,20l1-0.2l-0.2-1l-1,0.2L57.7,20z M57.5,18.4l1-0.2l-0.2-1l-1,0.2L57.5,18.4z M57.2,16.7l1-0.2l-0.2-1l-1,0.2
		L57.2,16.7z M59.4,19.8l1-0.2l-0.2-1l-1,0.2L59.4,19.8z M59.1,18.1l1-0.2l-0.2-1l-1,0.2L59.1,18.1z M58.9,16.5l1-0.2l-0.2-1l-1,0.2
		L58.9,16.5z M61.3,21.2l1-0.2l-0.2-1l-1,0.2L61.3,21.2z M61,19.5l1-0.2l-0.2-1l-1,0.2L61,19.5z"/>
</g>
<g>
	<path class="st1" d="M72.7,21.5c-0.6-0.1-1.1-0.4-1.4-1C71,20,70.9,19.4,71,18.8c0.1-0.6,0.4-1.1,0.9-1.5s1.1-0.5,1.7-0.4
		c0.2,0,0.5,0.1,0.7,0.3c0.2,0.1,0.4,0.3,0.5,0.5l0.8,1.1l-0.5,0.3l-0.7-1.1c-0.1-0.1-0.2-0.3-0.4-0.4c-0.2-0.1-0.3-0.1-0.5-0.2
		c-0.4-0.1-0.8,0-1.2,0.3c-0.4,0.3-0.6,0.6-0.7,1.1c-0.1,0.5,0,0.9,0.2,1.3c0.2,0.4,0.6,0.6,1,0.7c0.2,0,0.3,0,0.5,0
		c0.2,0,0.3-0.1,0.5-0.2l3.9-2.4c0.2-0.1,0.4-0.2,0.7-0.3c0.2,0,0.5,0,0.7,0c0.6,0.1,1.1,0.4,1.4,1c0.3,0.5,0.4,1.1,0.3,1.7
		c-0.1,0.6-0.4,1.1-0.9,1.5s-1.1,0.5-1.7,0.4c-0.2,0-0.5-0.1-0.7-0.3c-0.2-0.1-0.4-0.3-0.5-0.5l-0.8-1.1l0.5-0.3l0.7,1.1
		c0.1,0.1,0.2,0.3,0.4,0.3s0.3,0.1,0.5,0.2c0.4,0.1,0.9,0,1.2-0.3c0.4-0.3,0.6-0.6,0.7-1.1c0.1-0.4,0-0.9-0.2-1.2
		c-0.2-0.4-0.6-0.6-1-0.7c-0.2,0-0.3,0-0.5,0s-0.3,0.1-0.5,0.2l-3.9,2.4c-0.2,0.1-0.4,0.2-0.7,0.2C73.2,21.6,73,21.6,72.7,21.5z"/>
</g>
<g>
	<path class="st1" d="M91,28.5l-1.7-2.9l1.2-2.1l-0.9-1.5l5,0.2l2.6,4.4l-1.6,2.7l-0.5-0.3l1.5-2.4l-1-0.1l-1.2,2.1L91,28.5z
		 M92.6,25.9l3.6,0.1l-1.9-3.1l-3.6-0.2L92.6,25.9z M91.4,27.9L94,28l0.9-1.5l-2.6-0.1l-1.3-2.3L90,25.7L91.4,27.9z"/>
</g>
<g>
	<path class="st1" d="M105.2,41.5c-0.4-0.1-0.8-0.2-1.1-0.5c-0.3-0.2-0.6-0.5-0.9-0.8l-0.9,0.6l-0.3-0.5l0.9-0.6
		c-0.2-0.4-0.3-0.7-0.4-1.1c-0.1-0.4,0-0.8,0-1.2c0.2-0.9,0.7-1.6,1.5-2.1s1.7-0.7,2.6-0.4l3.3,0.7l-0.7,3.3
		c-0.2,0.9-0.7,1.6-1.5,2.1C107,41.6,106.1,41.8,105.2,41.5z M105.3,41c0.8,0.2,1.5,0.1,2.2-0.4c0.7-0.4,1.1-1,1.3-1.8l0.6-2.8
		l-2.8-0.6c-0.8-0.2-1.5-0.1-2.2,0.4c-0.7,0.4-1.1,1-1.3,1.8s-0.1,1.5,0.4,2.2S104.6,40.8,105.3,41z M105.1,39.9l2.3-1.3
		c0.1,0,0.1-0.1,0.1-0.2c0-0.1-0.1-0.1-0.1-0.2l-1.5-0.5l1.2-1c0,0,0-0.1,0.1-0.1s0-0.1,0-0.1c0,0-0.1-0.1-0.1-0.1c0,0-0.1,0-0.1,0
		l-2.3,1.3c-0.1,0-0.1,0.1-0.1,0.2c0,0.1,0.1,0.1,0.1,0.2l1.5,0.5l-1.2,1c0,0,0,0.1,0,0.1s0,0.1,0,0.1c0,0,0.1,0.1,0.1,0.1
		C105,39.9,105,39.9,105.1,39.9z"/>
</g>
<g>
	<path class="st1" d="M109.6,50.6l1.4-0.4c0.2-0.1,0.3,0,0.5,0c0.2,0.1,0.3,0.2,0.3,0.4l0.4,1.2c0,0.1,0,0.2,0,0.3
		c0,0.1-0.1,0.2-0.1,0.3c-0.2,0.2-0.3,0.5-0.4,0.8c-0.1,0.3,0,0.6,0.1,0.9c0.1,0.3,0.2,0.6,0.5,0.8s0.5,0.4,0.8,0.5
		c0.1,0,0.2,0.1,0.3,0.2s0.1,0.2,0.2,0.3l0.4,1.2c0.1,0.2,0,0.3,0,0.5s-0.2,0.3-0.4,0.3l-1.4,0.4l-0.7-2.3l1-0.3
		c-0.3-0.1-0.5-0.3-0.7-0.6s-0.3-0.5-0.4-0.8c-0.1-0.3-0.1-0.6-0.1-0.9c0-0.3,0.1-0.6,0.2-0.9l-1,0.3L109.6,50.6z M112.3,53.9
		c-0.1-0.2-0.1-0.4,0-0.6s0.1-0.4,0.3-0.6c0.1-0.1,0.2-0.3,0.2-0.4c0-0.2,0.1-0.3,0-0.5c0.2,0.1,0.4,0.3,0.6,0.7
		c0.2,0.3,0.4,0.7,0.5,1c0.1,0.3,0.2,0.7,0.2,1.1c0,0.4,0,0.7-0.1,0.9c-0.1-0.1-0.2-0.3-0.3-0.4c-0.1-0.1-0.3-0.2-0.4-0.2
		c-0.2-0.1-0.4-0.2-0.5-0.3C112.4,54.3,112.3,54.1,112.3,53.9z M112.5,50.8c-0.1-0.3-0.1-0.5,0.1-0.8c0.1-0.2,0.3-0.4,0.6-0.5
		c0.3-0.1,0.5-0.1,0.8,0.1c0.2,0.1,0.4,0.3,0.5,0.6c0.1,0.3,0.1,0.5-0.1,0.8s-0.3,0.4-0.6,0.5c-0.3,0.1-0.5,0.1-0.8-0.1
		S112.6,51.1,112.5,50.8z M114.3,56.4c-0.1-0.3-0.1-0.5,0.1-0.8s0.3-0.4,0.6-0.5c0.3-0.1,0.5-0.1,0.8,0.1s0.4,0.3,0.5,0.6
		c0.1,0.3,0.1,0.5-0.1,0.8c-0.1,0.2-0.3,0.4-0.6,0.5c-0.3,0.1-0.5,0.1-0.8-0.1S114.3,56.6,114.3,56.4z M114.4,53.3
		c-0.1-0.3-0.1-0.5,0.1-0.8s0.3-0.4,0.6-0.5c0.3-0.1,0.5-0.1,0.8,0.1s0.4,0.3,0.5,0.6c0.1,0.3,0.1,0.5-0.1,0.8s-0.3,0.4-0.6,0.5
		c-0.3,0.1-0.5,0.1-0.8-0.1S114.5,53.5,114.4,53.3z"/>
</g>
<g>
	<path class="st1" d="M111.7,68.1l3.4,0.4c0.1-0.3,0.3-0.6,0.6-0.8c0.3-0.2,0.6-0.3,1-0.2l2.6,0.3l-0.1,0.6l-2.6-0.3l-0.1,0.6
		L119,69l-0.1,0.6l-2.6-0.3l-0.1,0.6l2.6,0.3l-0.1,0.6l-2.6-0.3c-0.4,0-0.6-0.2-0.9-0.4c-0.2-0.3-0.4-0.5-0.4-0.9l-3.4-0.4
		L111.7,68.1z M111.2,71.9l2.9,0.3l0.1-1.1l2.8,0.3c0.5,0.1,0.9,0.3,1.1,0.6c0.3,0.3,0.4,0.7,0.3,1.2l-7.3-0.9L111.2,71.9z"/>
</g>
<g>
	<path class="st1" d="M106.3,84.4l1.1,0.6l0.6-1.1l0.9,0.5l-0.6,1.1l1.4,0.8c0.5-0.7,1.2-1.2,2.1-1.4c0.9-0.2,1.7-0.1,2.5,0.3
		c0.9,0.5,1.4,1.2,1.7,2.1c0.3,0.9,0.2,1.8-0.3,2.7s-1.2,1.4-2.1,1.7s-1.8,0.2-2.7-0.3c-0.8-0.4-1.3-1-1.7-1.9
		c-0.3-0.8-0.3-1.7,0-2.5l-1.4-0.8l-0.6,1.1l-0.9-0.5l0.6-1.1l-1.1-0.6L106.3,84.4z M110.4,87.1c-0.3,0.6-0.4,1.3-0.2,2
		c0.2,0.7,0.6,1.2,1.2,1.5c0.6,0.3,1.3,0.4,2,0.2c0.7-0.2,1.2-0.6,1.5-1.2c0.3-0.6,0.4-1.3,0.2-2c-0.2-0.7-0.6-1.2-1.2-1.5
		c-0.6-0.3-1.3-0.4-2-0.2C111.2,86.1,110.7,86.5,110.4,87.1z"/>
</g>
<g>
	<path class="st1" d="M101,96.3l3.3,3.5l-1.2,2.8l-0.5-0.6l-0.9,2l-0.8-0.9l-2.3,2.2l-3.3-3.5L101,96.3z M101,97.2l-5,4.6l2.4,2.6
		l2.3-2.2l0.6,0.7l0.9-1.9l0.5,0.6l0.7-1.6L101,97.2z M99.4,100l-0.4,0.4l1.1,1.2l0.4-0.4L99.4,100z M100.5,98.9l-0.4,0.4l1.1,1.2
		l0.4-0.4L100.5,98.9z M98.2,101.1l-0.4,0.4l1.1,1.2l0.4-0.4L98.2,101.1z M98.4,105.3l1.3-1.2l1.9,2.6l-0.7,0.7L98.4,105.3z
		 M101,97.2l-5,4.6L101,97.2z"/>
</g>
<g>
	<path class="st1" d="M84.7,107.5c0.5-0.2,1.1-0.2,1.6-0.1c0.5,0.1,1,0.2,1.5,0.5c0.4,0.2,0.8,0.6,1.2,1c0.3,0.4,0.6,0.9,0.7,1.4
		c0.2,0.5,0.2,1.1,0.1,1.6c-0.1,0.5-0.2,1-0.5,1.5c-0.2,0.4-0.6,0.8-1,1.2c-0.4,0.3-0.9,0.6-1.4,0.7c-0.5,0.2-1.1,0.2-1.6,0.1
		c-0.5-0.1-1-0.2-1.5-0.5c-0.4-0.2-0.8-0.6-1.2-1c-0.3-0.4-0.6-0.9-0.7-1.4c-0.2-0.5-0.2-1.1-0.1-1.6c0.1-0.5,0.2-1,0.5-1.5
		c0.2-0.4,0.6-0.8,1-1.2C83.7,107.9,84.1,107.6,84.7,107.5z M85.2,108l0.2,0.8c0.2-0.1,0.4,0,0.6,0.1s0.3,0.3,0.4,0.5l0.1,0.4
		l2.5,1.4c0-0.1,0-0.3,0-0.4c0-0.1-0.1-0.3-0.1-0.4c-0.2-0.8-0.7-1.5-1.4-2C86.9,108,86.1,107.8,85.2,108z M82.7,109.8
		c-0.1,0.2-0.2,0.4-0.2,0.6c-0.1,0.2-0.1,0.4-0.1,0.6c0,0.2,0,0.4,0,0.6c0,0.2,0.1,0.4,0.1,0.6c0.2,0.7,0.6,1.2,1.1,1.7
		s1.1,0.7,1.8,0.8l0-0.2c-0.1-0.2,0-0.4,0.1-0.7s0.3-0.3,0.5-0.4l0.8-0.2l-0.2-0.8c0-0.1,0-0.2,0.1-0.3s0.2-0.2,0.3-0.2l0.8-0.2
		l-0.2-0.8l-2.5,0.7c-0.1,0-0.2,0-0.3,0c-0.1-0.1-0.2-0.1-0.2-0.3l-0.3-1.2l-0.4,0.1c-0.2,0.1-0.4,0-0.5,0
		C82.9,110.1,82.8,110,82.7,109.8z"/>
</g>
<g>
	<path class="st1" d="M68,110.2c0,0-0.1,0-0.1,0s-0.1,0-0.1,0.1l-2.9,3.2c-0.1,0.1-0.1,0.2-0.2,0.3c0,0.1-0.1,0.2,0,0.3
		s0,0.2,0.1,0.3s0.1,0.2,0.2,0.3l1.7,1.6c0.1,0.1,0.2,0.1,0.3,0.2c0.1,0,0.2,0.1,0.3,0s0.2,0,0.3-0.1c0.1,0,0.2-0.1,0.3-0.2l0.2-0.2
		l-0.8-0.7c-0.1-0.1-0.2-0.2-0.2-0.3s-0.1-0.2-0.1-0.4c0-0.2,0.1-0.4,0.2-0.6s0.4-0.3,0.6-0.3c0.2,0,0.3,0,0.4,0.1
		c0.1,0,0.2,0.1,0.3,0.2l0.7,0.6l1.6-1.7c0,0,0-0.1,0.1-0.1c0,0,0-0.1,0-0.1c0-0.1,0-0.1-0.1-0.2c-0.1,0-0.1-0.1-0.2-0.1
		c0,0-0.1,0-0.1,0c0,0-0.1,0-0.1,0.1l-1.2,1.3l-0.4-0.4l1.2-1.3c0,0,0-0.1,0.1-0.1c0,0,0-0.1,0-0.1c0-0.1,0-0.1-0.1-0.2
		c-0.1-0.1-0.1-0.1-0.2-0.1c0,0-0.1,0-0.1,0c0,0-0.1,0-0.1,0.1l-1.2,1.3l-0.4-0.4l1.2-1.3c0,0,0-0.1,0.1-0.1c0,0,0-0.1,0-0.1
		c0-0.1,0-0.1-0.1-0.2c-0.1-0.1-0.1-0.1-0.2-0.1c0,0-0.1,0-0.1,0c0,0-0.1,0-0.1,0.1l-1.2,1.3l-0.4-0.4l1.2-1.3c0,0,0-0.1,0.1-0.1
		c0,0,0-0.1,0-0.1c0-0.1,0-0.2-0.1-0.2C68.1,110.2,68,110.1,68,110.2z M67.9,109.6c0.2,0,0.4,0.1,0.5,0.2c0.2,0.1,0.3,0.3,0.3,0.5
		c0.2,0,0.4,0.1,0.5,0.2c0.1,0.1,0.2,0.3,0.3,0.5c0.2,0,0.4,0.1,0.5,0.2s0.2,0.3,0.3,0.5c0.2,0,0.4,0.1,0.6,0.3s0.2,0.3,0.2,0.5
		c0,0.1,0,0.2,0,0.3c0,0.1-0.1,0.2-0.2,0.3l-2,2.1l-1-1c-0.1,0-0.1-0.1-0.2-0.1c-0.1,0-0.1,0-0.2,0c-0.1,0-0.2,0-0.2,0.1
		c-0.1,0.1-0.1,0.1-0.1,0.2c0,0,0,0.1,0,0.1c0,0,0.1,0.1,0.1,0.1l1.3,1.3c0.1,0.1,0.2,0.1,0.3,0.2c0.1,0,0.2,0.1,0.3,0
		s0.2,0,0.3-0.1c0.1,0,0.2-0.1,0.3-0.2l1.3-1.4c0.1-0.1,0.1-0.2,0.2-0.3s0-0.2,0-0.3c0-0.1,0-0.2-0.1-0.3c-0.1-0.1-0.1-0.2-0.2-0.3
		l0.4-0.4c0.1,0.1,0.2,0.3,0.3,0.5s0.1,0.4,0.1,0.6c0,0.2,0,0.4-0.1,0.5s-0.2,0.3-0.3,0.5l-1.3,1.4c-0.1,0.1-0.3,0.2-0.4,0.3
		s-0.3,0.1-0.5,0.1c-0.2,0-0.3,0-0.5-0.1c-0.2-0.1-0.3-0.2-0.5-0.3l-0.2-0.2l-0.2,0.2c-0.1,0.1-0.3,0.2-0.4,0.3s-0.3,0.1-0.5,0.1
		c-0.2,0-0.3,0-0.5-0.1c-0.2-0.1-0.3-0.2-0.5-0.3l-1.7-1.6c-0.1-0.1-0.2-0.3-0.3-0.4c-0.1-0.2-0.1-0.3-0.1-0.5c0-0.2,0-0.3,0.1-0.5
		c0.1-0.2,0.2-0.3,0.3-0.5l2.9-3.2c0.1-0.1,0.2-0.1,0.3-0.2C67.7,109.6,67.8,109.6,67.9,109.6z"/>
</g>
<g>
	<path class="st1" d="M54.9,109.1l-0.2,0.6l-3.5-1.3l-1.6,4.6c0.1,0.1,0.3,0.3,0.3,0.4c0.1,0.2,0.1,0.4,0.1,0.5l1.5,0.5l-0.2-3.3
		c0.1-0.3,0.3-0.5,0.6-0.6c0.3-0.1,0.6-0.1,1,0s0.6,0.3,0.8,0.6c0.2,0.3,0.2,0.6,0.1,0.9l-2.2,2.4l0.8,0.3l-0.2,0.6l-2.4-0.9
		c-0.2,0.2-0.3,0.3-0.6,0.4c-0.2,0.1-0.5,0.1-0.7,0c-0.2-0.1-0.4-0.2-0.5-0.4s-0.2-0.4-0.2-0.7l-2.4-0.9l0.2-0.6l0.8,0.3l-0.2-3.3
		c0.1-0.3,0.3-0.5,0.6-0.6s0.6-0.1,1,0c0.3,0.1,0.6,0.3,0.8,0.6s0.2,0.6,0.1,0.9l-2.2,2.4l1.5,0.5c0.1-0.1,0.3-0.3,0.4-0.3
		c0.2-0.1,0.4-0.1,0.5-0.1l1.6-4.6l-3.5-1.3l0.2-0.6L54.9,109.1z M48.2,110.1l-1.4-0.5l0.1,2L48.2,110.1z M53.2,111.9l-1.4-0.5
		l0.1,2L53.2,111.9z M49.1,113.4c-0.1,0-0.3,0-0.4,0c-0.1,0.1-0.2,0.2-0.3,0.3c0,0.1,0,0.3,0,0.4c0.1,0.1,0.2,0.2,0.3,0.3
		c0.1,0,0.3,0,0.4,0c0.1-0.1,0.2-0.2,0.3-0.3c0-0.1,0-0.3,0-0.4C49.3,113.5,49.2,113.4,49.1,113.4z"/>
</g>
<g>
	<path class="st1" d="M32.1,101l2.7-2.9l-2.1,0.1l0-0.7l3.4-0.1l0.1,3.4l-0.7,0l-0.1-2.1l-2.7,2.9L32.1,101z M31.5,106.8l-0.1-3.4
		l0.7,0l0.1,2.1l2.7-2.9l0.5,0.5l-2.7,2.9l2.1,0l0,0.7L31.5,106.8z"/>
</g>
<g>
	<path class="st1" d="M23.3,92.5l-1.5,0.8c-0.1,0.1-0.3,0.1-0.5,0c-0.2,0-0.3-0.1-0.4-0.3l-3.2-6c-0.1-0.1-0.1-0.3,0-0.5
		c0-0.2,0.1-0.3,0.3-0.4l1.5-0.8l0.3,0.5l-1.5,0.8l3.2,6L23,92L23.3,92.5z M26.7,90c0.1,0.1,0.1,0.3,0,0.5c0,0.2-0.1,0.3-0.3,0.4
		l-1.5,0.8l-0.3-0.5l1.5-0.8l-3.2-6l-1.5,0.8l-0.3-0.5l1.5-0.8c0.1-0.1,0.3-0.1,0.5,0c0.2,0,0.3,0.1,0.4,0.3L26.7,90z M24.3,88.3
		c0,0-0.1-0.1-0.1-0.1c0,0-0.1,0-0.2,0l-3,0.1l0.7-1c0,0,0.1-0.1,0.1-0.2c0-0.1,0-0.1,0-0.2l-1.1-2.1l-0.5,0.3l1,2l-0.9,1.3
		c0,0-0.1,0.1,0,0.2s0,0.1,0,0.2c0,0,0.1,0.1,0.1,0.1c0,0,0.1,0,0.2,0l3-0.1l-0.7,1c0,0-0.1,0.1-0.1,0.2s0,0.1,0,0.2l1.1,2.1
		l0.5-0.3l-1-2l0.9-1.3c0,0,0.1-0.1,0.1-0.2C24.3,88.4,24.3,88.4,24.3,88.3z"/>
</g>
<g>
	<path class="st1" d="M20.3,73.9l-0.4,0.5l-3.1-2.8l1.6-1.8l-2.5-2.3l0.1,1.3l-0.6,0l-0.1-2.3l2.3-0.1l0,0.6l-1.2,0.1l3,2.7
		l-1.6,1.8L20.3,73.9z"/>
</g>
<g>
	<path class="st1" d="M19.8,57.2l-0.6-0.1c0-0.2,0-0.5-0.1-0.6C19,56.3,19,56,19,55.8s0.2-0.5,0.4-0.6s0.3-0.3,0.4-0.6
		c0-0.3,0-0.5-0.1-0.7c-0.1-0.2-0.2-0.5-0.1-0.7s0.2-0.5,0.4-0.6c0.2-0.1,0.3-0.3,0.4-0.6c0-0.3,0-0.5-0.1-0.7
		C20,51,20,50.7,20.1,50.4s0.2-0.5,0.4-0.6c0.2-0.1,0.3-0.3,0.3-0.6l0.6,0.1c-0.1,0.3-0.2,0.5-0.4,0.6c-0.2,0.1-0.3,0.3-0.3,0.6
		c0,0.2,0,0.5,0.1,0.7c0.1,0.2,0.2,0.5,0.1,0.7c-0.1,0.3-0.2,0.5-0.4,0.6s-0.3,0.3-0.4,0.6s0,0.5,0.1,0.7c0.1,0.2,0.2,0.5,0.1,0.8
		c-0.1,0.3-0.2,0.5-0.4,0.6c-0.2,0.1-0.3,0.3-0.4,0.6s0,0.5,0.1,0.6C19.9,56.7,19.9,56.9,19.8,57.2z M18.3,56.9l-0.6-0.1
		c0-0.2,0-0.5-0.1-0.6c-0.1-0.2-0.2-0.4-0.1-0.7c0.1-0.3,0.2-0.5,0.4-0.6s0.3-0.3,0.4-0.6c0-0.3,0-0.5-0.1-0.7
		c-0.1-0.2-0.2-0.5-0.1-0.7c0.1-0.3,0.2-0.5,0.4-0.6c0.2-0.1,0.3-0.3,0.4-0.6c0-0.3,0-0.5-0.1-0.7c-0.1-0.2-0.2-0.4-0.1-0.7
		c0.1-0.3,0.2-0.5,0.4-0.6c0.2-0.1,0.3-0.3,0.3-0.6l0.6,0.1c-0.1,0.3-0.2,0.5-0.4,0.6s-0.3,0.3-0.3,0.6s0,0.5,0.1,0.7
		c0.1,0.2,0.2,0.5,0.1,0.7c-0.1,0.3-0.2,0.5-0.4,0.6s-0.3,0.3-0.4,0.6c0,0.2,0,0.5,0.1,0.7c0.1,0.2,0.2,0.5,0.1,0.8
		c-0.1,0.3-0.2,0.5-0.4,0.6c-0.2,0.1-0.3,0.3-0.4,0.6c0,0.2,0,0.5,0.1,0.6S18.3,56.6,18.3,56.9z M16.7,56.6l-0.6-0.1
		c0-0.2,0-0.5-0.1-0.6c-0.1-0.2-0.2-0.4-0.1-0.7c0.1-0.3,0.2-0.5,0.4-0.6s0.3-0.3,0.4-0.6s0-0.5-0.1-0.7c-0.1-0.2-0.2-0.5-0.1-0.7
		c0.1-0.3,0.2-0.5,0.4-0.6c0.2-0.1,0.3-0.3,0.4-0.6c0-0.3,0-0.5-0.1-0.7c-0.1-0.2-0.2-0.4-0.1-0.7c0.1-0.3,0.2-0.5,0.4-0.6
		c0.2-0.1,0.3-0.3,0.3-0.6l0.6,0.1c-0.1,0.3-0.2,0.5-0.4,0.6s-0.3,0.3-0.3,0.6s0,0.5,0.1,0.7c0.1,0.2,0.2,0.5,0.1,0.7
		c-0.1,0.3-0.2,0.5-0.4,0.6c-0.2,0.1-0.3,0.3-0.4,0.6c0,0.2,0,0.5,0.1,0.7c0.1,0.2,0.2,0.5,0.1,0.8s-0.2,0.5-0.4,0.6
		c-0.2,0.1-0.3,0.3-0.4,0.6c0,0.2,0,0.5,0.1,0.6S16.8,56.3,16.7,56.6z"/>
</g>
<g>
	<path class="st1" d="M27.7,41.2l-0.6-0.5l1.7-2.1l-1.7-1.4L26.4,38c-0.4,0.5-1,0.8-1.7,0.9c-0.7,0.1-1.3-0.1-1.8-0.6
		c-0.4-0.3-0.7-0.7-0.8-1.2c-0.2-0.5-0.2-1,0-1.4c-0.4-0.5-0.7-1-0.7-1.6s0.2-1.2,0.6-1.7c0.4-0.5,0.9-0.8,1.5-0.9s1.2,0,1.7,0.4
		c0.4-0.2,0.9-0.3,1.4-0.3c0.5,0.1,0.9,0.2,1.3,0.6c0.5,0.4,0.8,1,0.9,1.7s-0.1,1.3-0.6,1.8l-0.7,0.9l1.7,1.4l1.8-2.2l0.6,0.5
		L27.7,41.2z M25.8,37.6l1.9-2.3c0.3-0.4,0.4-0.8,0.4-1.3s-0.3-0.9-0.6-1.2c-0.3-0.2-0.6-0.3-0.9-0.4c-0.3,0-0.7,0-1,0.2l-0.4,0.2
		l-0.4-0.2c-0.4-0.2-0.8-0.3-1.2-0.3c-0.4,0.1-0.8,0.3-1.1,0.6c-0.3,0.3-0.4,0.7-0.4,1.2c0,0.4,0.2,0.8,0.5,1.1l0.3,0.3L22.8,36
		c-0.1,0.3-0.1,0.7,0,1c0.1,0.3,0.3,0.6,0.5,0.8c0.4,0.3,0.8,0.4,1.3,0.4C25.1,38.1,25.5,37.9,25.8,37.6z"/>
</g>
</svg>
