<?xml version="1.0" encoding="utf-8"?>
<!-- Generator: Adobe Illustrator 26.0.0, SVG Export Plug-In . SVG Version: 6.00 Build 0)  -->
<svg version="1.1" id="Camada_1" xmlns="http://www.w3.org/2000/svg" xmlns:xlink="http://www.w3.org/1999/xlink" x="0px" y="0px"
	 viewBox="0 0 133 133" style="enable-background:new 0 0 133 133;" xml:space="preserve">
<style type="text/css">
	.st0{fill:#30440D;}
</style>
<path class="st0" d="M36.5,49c1.6-2.6,3.5-5,5.6-7.1L23.6,22.1C19,26.4,15,31.5,11.9,37L36.5,49z"/>
<path class="st0" d="M81.8,35c2.8,1.3,5.4,2.9,7.8,4.7L108.1,20c-4.9-4.1-10.4-7.5-16.4-10L81.8,35z"/>
<path class="st0" d="M124.3,41L99.7,53c1.2,2.7,2,5.5,2.5,8.5l27.3-2.5C128.7,52.6,126.9,46.5,124.3,41"/>
<path class="st0" d="M97.9,49.5l24.6-12c-3-5.5-6.9-10.5-11.5-14.9L92.5,42.4C94.6,44.5,96.4,46.9,97.9,49.5"/>
<path class="st0" d="M31.6,66.5c0-0.5,0-1.1,0-1.6L4.3,62.5c-0.1,1.3-0.1,2.7-0.1,4c0,5.1,0.7,10.1,1.9,14.9L32.4,74
	C31.9,71.6,31.6,69.1,31.6,66.5"/>
<path class="st0" d="M94.5,88.5c-1.9,2.3-4.2,4.4-6.7,6.1l14.4,22.8c5.4-3.5,10.1-7.9,14.1-12.8L94.5,88.5z"/>
<path class="st0" d="M102.6,66.5c0,2.5-0.3,5-0.8,7.4l26.4,7.4c1.2-4.7,1.8-9.7,1.8-14.8c0-1.3,0-2.5-0.1-3.8l-27.3,2.5
	C102.5,65.7,102.6,66.1,102.6,66.5"/>
<path class="st0" d="M40.1,89l-21.9,16.2c4.1,4.9,8.9,9.2,14.3,12.6L46.9,95C44.4,93.3,42.1,91.3,40.1,89"/>
<path class="st0" d="M32,61.1c0.5-3,1.4-5.9,2.6-8.6L10,40.5c-2.7,5.6-4.6,11.8-5.4,18.2L32,61.1z"/>
<path class="st0" d="M98.9,119.5L84.5,96.7c-2.6,1.4-5.4,2.6-8.4,3.3l5.1,26.4C87.5,125,93.5,122.7,98.9,119.5"/>
<path class="st0" d="M100.7,77.6c-1,2.7-2.3,5.3-3.8,7.7l21.9,16.2c3.6-5,6.4-10.5,8.3-16.5L100.7,77.6z"/>
<path class="st0" d="M72.2,100.8c-1.7,0.2-3.4,0.4-5.1,0.4c-1.4,0-2.8-0.1-4.1-0.2l-5.1,26.4c3,0.4,6.1,0.7,9.2,0.7
	c3.5,0,6.9-0.3,10.2-0.8L72.2,100.8z"/>
<path class="st0" d="M69.3,31.9c3,0.2,6,0.8,8.8,1.7l9.9-25c-5.9-2-12.1-3.2-18.6-3.4v26.7H69.3z"/>
<path class="st0" d="M59,100.3c-3.1-0.7-6-1.8-8.7-3.2l-14.4,22.8c5.6,3.1,11.6,5.4,18.1,6.8L59,100.3z"/>
<path class="st0" d="M56.4,33.5c2.9-0.9,5.9-1.4,9-1.6V5.1c-6.6,0.2-12.9,1.3-18.9,3.4L56.4,33.5z"/>
<path class="st0" d="M37.7,85.9c-1.7-2.5-3.2-5.3-4.2-8.2L7.1,85.1c2,6.2,5,11.9,8.7,17L37.7,85.9z"/>
<path class="st0" d="M45.1,39.3c2.3-1.8,4.9-3.3,7.6-4.5l-9.9-25c-5.9,2.4-11.4,5.7-16.2,9.7L45.1,39.3z"/>
</svg>
