<?xml version="1.0" encoding="utf-8"?>
<!-- Generator: Adobe Illustrator 26.0.0, SVG Export Plug-In . SVG Version: 6.00 Build 0)  -->
<svg version="1.1" id="Layer_1" xmlns="http://www.w3.org/2000/svg" xmlns:xlink="http://www.w3.org/1999/xlink" x="0px" y="0px"
	 viewBox="0 0 981.6 959.7" style="enable-background:new 0 0 981.6 959.7;" xml:space="preserve">
<style type="text/css">
	.st0{fill:#418FDE;}
	.st1{fill:#DDF2FF;}
	.st2{fill:#E5EEEF;}
</style>
<g>
	<path class="st0" d="M0,454.6l1-6.6c7,0.7,14.1,1.5,21.2,2.1c5.2,0.5,10.5,0.7,15.8,1.2c7.4,0.7,14.9,1.5,22.3,2.2
		c2.6,0.2,5.2,0.4,7.7,0.6c9.7,0.8,19.3,1.5,29,2.3c8.3,0.7,16.5,1.5,24.8,2.2c9.5,0.9,18.9,1.9,28.4,2.8c5.2,0.5,10.5,0.7,15.8,1.2
		c7.3,0.7,14.7,1.5,22,2.2c4.9,0.5,9.8,0.8,14.7,1.2c3,0.2,5.9,0.4,8.9,0.6c1.5,0.1,2.3,0.7,2.2,2.5c-0.1,2-0.1,4.1,0,6.2
		c0.2,6.9-0.1,13.8,0.7,20.6c1.5,13.2,3.6,26.4,5.4,39.6c0.2,1.7,0.5,2.9-2.2,3.6c-16.7,4.5-33.3,9.4-49.9,14.1
		c-19.2,5.4-38.4,10.7-57.6,16C96.5,573,82.8,577,69,580.9C51,586,33.1,591,14.8,596.1c-1.5-6.9-3.2-13.6-4.5-20.5
		c-1.8-9.6-3.6-19.3-5-29s-2.4-19.4-3.4-29.1C1.2,511.6,1,505.8,0.6,500c-0.1-0.8-0.3-1.5-0.6-2.2V454.6z"/>
	<path class="st0" d="M469.5,959.7c-0.6-0.3-1.3-0.5-1.9-0.6c-9.2-0.8-18.4-1.5-27.6-2.3c-7.1-0.6-14.1-1.5-21.7-2.2
		c13.3-68.9,26.5-137.5,39.8-206.3c4,0.2,7.9,0.5,11.9,0.8c0.7,0,1.4,0.3,2.2,0.3c6.9,0.2,13.8,0.8,20.6,0.5
		c9-0.4,18.1-1.4,27.1-2.2c3-0.3,6-0.8,9-1c0.5,0,1.5,0.9,1.7,1.6c1.9,9.4,3.7,18.9,5.5,28.3c2.1,11.2,4.2,22.4,6.3,33.5
		c1.6,8.3,3.3,16.5,4.9,24.8c2.1,11.3,4.2,22.7,6.3,34.1c1.7,8.9,3.5,17.8,5.2,26.7c2,10.5,4,21.1,6,31.6c1.5,8,3.1,16,4.8,24
		c0.4,2-0.1,2.5-2.1,2.8c-6.7,0.8-13.3,1.8-20,2.7c-4.4,0.5-8.8,0.9-13.2,1.2c-6.8,0.5-13.5,0.8-20.3,1.2c-0.3,0-0.5,0.4-0.8,0.6
		L469.5,959.7z"/>
	<path class="st0" d="M22.5,624.3L228,566.7c5.3,11.6,10,23.1,15.6,34.1c5,9.7,11,18.8,16.8,28.1c1.1,1.8,0.8,2.2-0.7,3.4
		c-13.2,9.7-26.3,19.5-39.4,29.2c-11.7,8.7-23.3,17.3-35,25.9c-11.4,8.4-22.8,16.8-34.1,25.3c-12.4,9.2-24.8,18.3-37.3,27.5
		c-7.4,5.5-14.8,10.9-22.2,16.3c-0.4,0.3-0.9,0.5-1.3,0.7C60.9,716.4,37.9,672.5,22.5,624.3z"/>
	<path class="st0" d="M359.2,717.7c21.6,11.2,44.5,19.7,68.2,25.1c-13,68.7-26,137.2-39,206.2c-49.6-10.5-97.4-28.4-141.6-53.2
		L359.2,717.7z"/>
	<path class="st0" d="M45.2,276.4c1.8,0.9,3.2,1.5,4.6,2.2c10.8,5.3,21.6,10.7,32.5,16c14.8,7.2,29.6,14.4,44.4,21.6
		c15.9,7.8,31.8,15.5,47.6,23.3c15.1,7.4,30.3,14.7,45.4,22.1c5.8,2.8,11.6,5.6,17.7,8.5c-9.6,21.6-16.5,44.3-20.5,67.5l-15.7-1.5
		c-2.6-0.2-5.1-0.5-7.7-0.8c-5.3-0.4-10.7-0.7-16.1-1.2c-7.2-0.6-14.5-1.5-21.7-2.2c-5-0.5-10-0.7-14.9-1.2
		c-7.9-0.7-15.8-1.5-23.7-2.2c-5.1-0.5-10.1-0.7-15.2-1.2c-7.6-0.7-15.2-1.5-22.9-2.2c-4.8-0.4-9.6-0.8-14.4-1.2
		c-8.2-0.7-16.4-1.5-24.5-2.2c-5.2-0.4-10.3-0.7-15.5-1.2c-7.2-0.6-14.4-1.3-21.6-1.9c3.1-24.6,8.2-48.9,15.3-72.7
		C25.4,322.3,34.4,299,45.2,276.4z"/>
	<path class="st0" d="M681.9,38.3c13.9,6.7,27.4,12.8,40.6,19.7c11.6,6.1,23,12.7,34,19.8c12.6,8.2,24.8,17,37.1,25.8
		c5.1,3.6,9.8,7.8,14.7,11.7c1.6,1.2,1.6,2.3,0.2,3.8c-4.8,4.9-9.6,9.9-14.3,14.9c-9.1,9.6-18.1,19.2-27.2,28.9
		c-5.5,5.9-11.1,11.8-16.6,17.7c-8.8,9.4-17.7,18.8-26.6,28.2c-5.5,5.9-11,11.8-16.6,17.7c-8.9,9.5-17.8,19-26.7,28.5
		c-4.5,4.8-9,9.7-13.4,14.5c-1.2,1.3-1.9,1.3-3.4,0.3c-11.4-7.7-22.8-15.4-34.5-22.6c-7.3-4.5-15.1-8.1-22.7-12
		c-1.8-0.9-1.9-1.6-1.2-3.4c7.7-19.4,15.4-38.8,23.1-58.3c6.9-17.5,13.8-34.9,20.8-52.4c7.3-18.4,14.6-36.8,21.8-55.2
		C674.5,56.9,678.1,47.9,681.9,38.3z"/>
	<path class="st0" d="M108.3,781.5l171.6-127c15.7,17.9,33.6,33.8,53.4,47.1L323,717.8c-10.8,17.2-21.7,34.3-32.5,51.5
		c-13.5,21.3-26.9,42.7-40.4,64c-9.3,14.7-18.7,29.4-28,44.2c-1.2,2-2,2-3.9,0.8c-14.5-9.5-28.6-19.3-41.9-30.5
		c-6.9-5.8-13.7-11.6-20.3-17.6c-7-6.3-14-12.6-20.4-19.4c-8.4-8.8-16.3-18-24.4-27C110.3,783,109.3,782.2,108.3,781.5z"/>
	<path class="st0" d="M56.6,249.7c24.1-42.9,54.6-81.9,90.4-115.7c4.4,3.8,8.8,7.4,13,11.4c3.3,3.1,6,6.8,9.1,10.1
		c4.1,4.4,8.2,8.6,12.3,12.9c8.6,9.1,17.2,18.3,25.8,27.5c5.3,5.6,10.5,11.3,15.8,16.9l24.6,26.3c5.1,5.5,10.3,11,15.4,16.5
		c8.1,8.7,16.2,17.4,24.3,26c1.8,1.9,3.4,3.9,5.2,6c-16.4,17-31.3,35.3-43.8,55.8c-2-1-3.8-2-5.7-2.9c-11-5.4-22-10.8-33-16.2
		L164.2,302c-15.4-7.5-30.8-15-46.1-22.5c-15.2-7.4-30.4-14.8-45.7-22.2C67.3,254.8,62,252.3,56.6,249.7z"/>
	<path class="st0" d="M477,210c-23.8,1.6-47.2,5.4-70.4,12.6c-25.8-65.1-51.5-130.2-77.3-195.3C377,10.4,426.2,2.3,477,0.6V210z"/>
	<path class="st0" d="M651.2,698.4c19.6-13.4,37.3-29.5,52.4-47.8c7.2,5.3,14.4,10.5,21.5,15.8c10.4,7.7,20.9,15.3,31.3,23
		c11.1,8.2,22.1,16.4,33.2,24.7l33.2,24.7l42.5,31.5c2.4,1.7,4.7,3.5,7.2,5.1c1.3,0.9,1.3,1.8,0.3,2.9c-5.3,6-10.5,12.2-16,18.1
		c-8.2,8.8-16.3,17.7-25,26c-9.1,8.7-18.5,17.1-28.3,25c-12,9.6-24.5,18.4-36.9,27.5c-3,2.2-3,2.1-5.1-1.2
		c-7-11.1-14.1-22.1-21.1-33.2c-9.9-15.7-19.9-31.5-29.8-47.3c-13.5-21.3-26.9-42.7-40.4-64c-6.1-9.6-12.2-19.2-18.3-28.8
		C651.6,699.6,651.4,699,651.2,698.4z"/>
	<path class="st0" d="M744.3,373.8c6.7-3.3,14-6.8,21.3-10.3c11.6-5.7,23.1-11.4,34.7-17.1c14.9-7.3,29.8-14.5,44.6-21.7
		c15.8-7.7,31.6-15.4,47.4-23.1c13.6-6.6,27.3-13.2,41-20c2.1-1,3.1-0.9,4,1.3c4.6,11.2,9.6,22.2,13.9,33.5
		c6.8,18,12.4,36.4,16.6,55.2c2.3,10.1,4,20.3,5.9,30.5c1,5.6,1.9,11.2,2.8,16.8c0.1,0.8,0.1,1.6,0,2.4c-4.8,0.4-9.5,0.8-14.2,1.3
		c-7.2,0.7-14.5,1.5-21.7,2.2c-4.6,0.4-9.2,0.8-13.8,1.2c-7.8,0.7-15.6,1.5-23.4,2.2c-5.1,0.5-10.1,0.7-15.2,1.2
		c-7.1,0.7-14.1,1.5-21.2,2.2c-4.8,0.5-9.6,0.7-14.4,1.2c-7.5,0.7-15.1,1.5-22.6,2.2c-4.7,0.4-9.4,0.8-14.1,1.2
		c-7.4,0.7-14.9,1.5-22.3,2.2c-4.3,0.4-8.6,0.8-13,1.2c-5.1,0.4-10.1,0.7-15.2,1.1c-1.6,0.1-2.3-0.6-2.6-2.1c-2-9.7-3.6-19.5-6.4-29
		C753,397.5,748.5,385.9,744.3,373.8z"/>
	<path class="st0" d="M922.5,254.2c-14.5,7-28.4,13.9-42.4,20.7c-11.3,5.5-22.6,11.2-34,16.7c-15.3,7.5-30.6,15-45.9,22.4
		l-46.1,22.5c-7,3.4-14.2,6.7-21.1,10.3c-2.4,1.2-3.5,0.8-4.8-1.4c-3.8-6.3-7.6-12.6-11.9-18.6c-4.8-6.8-10.1-13.4-15.4-19.8
		c-4.2-5.1-8.7-9.8-13.2-14.8c2.3-2.6,4.7-5.3,7.1-8c4.5-4.7,9.1-9.4,13.5-14.1c8.2-8.7,16.4-17.5,24.6-26.3
		c4.6-4.9,9-9.8,13.6-14.7c8.9-9.5,17.8-19,26.7-28.5c4.8-5.1,9.5-10.2,14.2-15.3c8.5-9.1,17-18.2,25.6-27.3c5-5.4,10-10.7,15-16.1
		c0.2-0.2,0.4-0.4,0.6-0.6c3.4-3.8,3.4-3.8,7-0.2s7.6,7.2,11.1,11.1c9.8,10.9,19.8,21.6,28.9,33c10.1,12.7,19.6,26,28.8,39.4
		C911,234.2,916.4,244.2,922.5,254.2z"/>
	<path class="st0" d="M599.9,946.8c-13.3-68.9-26.5-137.5-39.9-206.4c23.3-5.4,44.9-14.6,65.8-25.9c5.9,9.3,11.7,18.4,17.5,27.6
		c5.1,8,10.1,16,15.1,24c9.9,15.8,19.8,31.5,29.8,47.3c13.4,21.3,26.9,42.5,40.3,63.8c2.8,4.5,5.7,9,8.6,13.4
		c1.2,1.8,0.7,2.7-1.1,3.6c-13.8,7-27.3,14.4-41.2,21.1c-17.1,8.1-34.8,14.8-52.9,20.2c-13.1,4-26.5,7.2-39.7,10.8L599.9,946.8z"/>
	<path class="st0" d="M760.8,537.5c1.5-11.4,3.3-22.6,4.3-33.8s1.2-22.7,1.7-34.4c2.8-0.4,5.9-0.9,9.1-1.1
		c7.3-0.6,14.6-1.1,21.8-1.7c8.9-0.8,17.8-1.9,26.7-2.7c5.2-0.5,10.3-0.7,15.5-1.2c7.1-0.6,14.1-1.5,21.2-2.2
		c4.6-0.5,9.2-0.8,13.8-1.2c7.6-0.7,15.2-1.5,22.9-2.2c5.1-0.5,10.1-0.7,15.2-1.2c7.2-0.7,14.5-1.5,21.7-2.2
		c4.7-0.5,9.4-0.8,14.1-1.2c7.6-0.7,15.2-1.5,22.9-2.2c2.6-0.2,5.3-0.4,8-0.5c0.3,3.8,0.7,7.4,0.8,11c0.1,11.1,0.2,22.3,0,33.4
		c-0.1,7.4-0.5,14.8-1.1,22.2c-0.7,9-1.4,18-2.8,27c-2.4,14.7-5.3,29.2-8.1,43.8c-0.4,2-1.1,3.9-1.3,5.9s-1.1,2.2-2.6,1.7
		c-12.6-3.5-25.2-7-37.8-10.5c-15.9-4.5-31.9-8.9-47.8-13.4c-11-3.1-22-6.2-33-9.3c-17.1-4.8-34.2-9.5-51.3-14.3
		C783.1,543.9,771.8,540.7,760.8,537.5z"/>
	<path class="st0" d="M174.3,113.1c38.1-31.7,80.9-57.3,126.8-76c2.2,5.4,4.2,10.5,6.2,15.7l19.1,48.3c6.5,16.5,13.1,33.1,19.6,49.6
		c4.9,12.3,9.7,24.5,14.6,36.8c5.7,14.4,11.4,28.8,17,43.2c0.1,1-0.3,1.9-1.1,2.5c-3.1,1.6-6.4,2.8-9.4,4.6
		c-11.6,6.7-23.2,13.4-34.7,20.3c-4.3,2.6-8.2,5.9-12.3,8.8c-0.9,0.4-1.9,0.3-2.7-0.3c-4.2-4.4-8.3-9-12.5-13.5
		c-9-9.6-18-19.1-27-28.7c-5.3-5.6-10.5-11.3-15.8-16.9l-24.6-26.3c-5.1-5.5-10.3-11-15.4-16.5c-8.1-8.7-16.2-17.4-24.4-26.1
		c-5.1-5.5-10.3-11-15.4-16.5C179.8,119.3,177.3,116.4,174.3,113.1z"/>
	<path class="st0" d="M576.3,222.8c-12.9-3.1-25.3-6.3-37.8-8.9c-7.3-1.5-14.7-2-22.1-2.9c-2.3-0.3-4.6-0.4-6.9-0.6
		c-1.4-0.1-1.8-0.6-1.8-2c0-68.4,0.1-136.7,0-205.1c0-0.5,0-1.1,0.1-1.7C557.7,2.8,606,12,653.4,28
		C627.6,93.3,601.9,158.2,576.3,222.8z"/>
	<path class="st0" d="M752,565.8c15.8,4.4,31.2,8.6,46.6,12.9c12.2,3.4,24.3,6.9,36.5,10.3c20,5.6,40,11.2,60,16.8
		c20.4,5.7,40.9,11.5,61.3,17.1c2.1,0.6,1.3,1.7,0.9,2.6c-4.2,11.5-8,23-12.7,34.3c-4.5,11-9.5,21.9-14.9,32.6
		c-9.7,19.3-21.1,37.7-33.3,55.5c-1,1.5-2.2,2.9-3.6,4.7c-2.9-2.1-5.8-4.2-8.8-6.4L848.8,720c-12.1-9-24.2-18-36.3-26.9
		c-11.7-8.6-23.4-17.2-35.1-25.9c-11.3-8.4-22.6-16.7-33.9-25.1c-6.6-4.9-13-9.9-19.8-14.5c-2.1-1.4-1.4-2.3-0.7-3.7
		c5.2-9.4,10.9-18.6,15.6-28.2c4.4-8.8,7.9-18.2,11.8-27.2C751,567.5,751.6,566.7,752,565.8z"/>
</g>
<g>
	<path class="st1" d="M300.1,173.3c0.9-0.6,1.5-1.2,1.8-1.8s0.2-1.2-0.2-1.8c-0.4-0.6-0.9-0.9-1.6-1s-1.5,0.3-2.5,0.9
		c-2.3,1.5-5.2,2.3-8.6,2.4c-3.4,0.1-6.6-1.5-9.7-4.8c-0.4-0.4-1-0.7-1.5-0.7s-1.1,0.1-1.6,0.4c-0.6,0.4-0.9,0.9-1,1.6
		c0,0.7,0.2,1.3,0.6,1.7c3.9,4.2,8.1,6.3,12.6,6.3C292.9,176.5,296.8,175.5,300.1,173.3z M307.2,184c-7.7,5-15.7,6.5-24.3,4.6
		c-8.5-1.9-15.3-6.8-20.4-14.6c-3.6-5.6-5.4-13.1-5.2-22.6c0.2-9.5,2.3-20.9,6.3-34.4c14,1.8,25.3,4.6,34,8.2
		c8.7,3.7,14.9,8.3,18.5,13.9c5.1,7.8,6.8,16,5.1,24.6C319.5,172.2,314.8,179,307.2,184z M303.9,178.9c6.3-4.1,10.1-9.6,11.4-16.6
		s-0.1-13.7-4.2-20.1c-2.9-4.4-8-8.2-15.4-11.4s-16.6-5.6-27.8-7.3c-3,10.9-4.6,20.3-4.6,28.4c-0.1,8,1.3,14.3,4.2,18.7
		c4.2,6.4,9.7,10.4,16.6,12C291.1,184.3,297.7,183,303.9,178.9z"/>
</g>
<g>
	<path class="st1" d="M388,142.6l-9.3-61l18.1-2.8l-2.8-18l42.8-6.6l5.5,36.2l18.1-2.8l6.6,42.8l-33.7,5.2l-2.8-18.1l-11.6,1.8
		l2.8,18.1L388,142.6z M393.6,135l11.5-1.8l-1.8-11.5l-11.5,1.8L393.6,135z M390.8,116.9l11.5-1.8l-1.8-11.5l-11.5,1.8L390.8,116.9z
		 M388.1,98.8l11.5-1.8l-1.8-11.5l-11.5,1.8L388.1,98.8z M409,114.1l11.5-1.8l-1.8-11.5l-11.5,1.8L409,114.1z M406.2,96l11.5-1.8
		l-1.8-11.5l-11.5,1.8L406.2,96z M403.4,77.9l11.5-1.8l-1.8-11.5l-11.5,1.8L403.4,77.9z M427.1,111.4l11.5-1.8l-1.8-11.5l-11.5,1.8
		L427.1,111.4z M424.3,93.2l11.5-1.8L434,79.9l-11.5,1.8L424.3,93.2z M421.5,75.1l11.5-1.8l-1.8-11.5l-11.5,1.8L421.5,75.1z
		 M448,126.7l11.5-1.8l-1.8-11.5l-11.5,1.8L448,126.7z M445.2,108.6l11.5-1.8l-1.8-11.5L443.4,97L445.2,108.6z"/>
</g>
<g>
	<path class="st1" d="M539.8,117.2c-4.9-1-8.7-3.6-11.3-7.8c-2.6-4.2-3.4-8.8-2.4-13.8c1-4.9,3.5-8.8,7.5-11.6s8.5-3.7,13.3-2.8
		c2,0.4,3.8,1.1,5.5,2.1s3.1,2.3,4.3,4l6.1,8.9l-4.1,2.7l-5.9-8.6c-0.8-1.2-1.8-2.1-3-2.8s-2.5-1.2-3.9-1.5c-3.5-0.7-6.7,0-9.6,2
		c-2.9,2.1-4.7,4.9-5.4,8.4c-0.7,3.6-0.1,6.9,1.7,10s4.5,5,8.1,5.7c1.4,0.3,2.7,0.3,4.1,0.1s2.7-0.6,3.9-1.4l30.7-19.2
		c1.7-1.1,3.5-1.8,5.5-2.1s3.9-0.2,5.8,0.1c4.9,1,8.7,3.5,11.3,7.7c2.7,4.2,3.5,8.7,2.5,13.6c-1,5-3.5,8.9-7.6,11.8
		s-8.5,3.9-13.4,2.9c-1.9-0.4-3.7-1.1-5.4-2.1s-3.1-2.3-4.2-3.9l-6-8.8l4.1-2.7l5.7,8.5c0.7,1.1,1.7,2,2.9,2.7s2.5,1.2,3.9,1.5
		c3.5,0.7,6.8,0,9.7-2.2c2.9-2.1,4.7-5,5.4-8.6c0.7-3.5,0.1-6.8-1.8-9.8c-1.9-3-4.6-4.9-8.1-5.6c-1.4-0.3-2.7-0.3-4.1-0.1
		c-1.4,0.2-2.6,0.7-3.8,1.5l-30.7,19.2c-1.7,1-3.5,1.7-5.5,1.9C543.6,117.7,541.7,117.6,539.8,117.2z"/>
</g>
<g>
	<path class="st2" d="M679.8,179l-14.5-26.3l11.7-18.4l-7.5-13.5l45.4,3l22.1,39.9L721.6,188l-4.6-2.9l13.8-21.6l-9.2-0.9L709.9,181
		L679.8,179z M694.8,155.4l32.5,2.2l-15.9-28.3l-32.2-2.3L694.8,155.4z M683.1,173.8l23.8,1.5l8.2-12.9l-23.6-1.8L680,139.8l-8.3,13
		L683.1,173.8z"/>
</g>
<g>
	<path class="st1" d="M789.1,274.1c-2.8-2.3-5-5-6.7-8s-2.8-6.2-3.5-9.6l-9,0.8l-0.5-4.8l9-0.8c0-3.4,0.5-6.8,1.6-10.1
		s2.8-6.3,5.1-9.1c5.2-6.3,11.9-9.8,20-10.6c8.1-0.7,15.3,1.5,21.6,6.7l22.7,18.8l-18.8,22.7c-5.2,6.3-11.8,9.8-19.9,10.6
		C802.6,281.6,795.4,279.4,789.1,274.1z M792.2,270.4c5.3,4.4,11.3,6.2,18,5.6s12.3-3.6,16.6-8.8l15.7-19l-18.9-15.7
		c-5.3-4.4-11.3-6.2-18-5.6s-12.3,3.6-16.6,8.8s-6.2,11.3-5.6,18C784,260.5,786.9,266,792.2,270.4z M794.3,260.9L817,260
		c0.7,0,1.2-0.4,1.5-1c0.3-0.7,0.1-1.3-0.4-1.9l-9.4-9.5l13.1-3.3c0.3-0.1,0.6-0.2,0.8-0.5c0.2-0.2,0.3-0.5,0.3-0.9
		s-0.2-0.7-0.5-0.9s-0.6-0.3-1-0.3l-22.7,0.9c-0.7,0-1.2,0.4-1.5,1s-0.1,1.3,0.4,1.9l9.4,9.5l-13.1,3.3c-0.3,0.1-0.5,0.3-0.7,0.5
		s-0.3,0.5-0.2,0.9c0,0.4,0.2,0.7,0.4,0.9C793.6,260.9,794,261,794.3,260.9z"/>
</g>
<g>
	<path class="st1" d="M841.4,340l14.2-3.1c1.7-0.4,3.3-0.1,4.8,0.9c1.5,0.9,2.4,2.3,2.8,4l2.7,12.5c0.2,1,0.2,2-0.1,3.1
		s-0.8,2-1.6,2.8c-2.1,2.3-3.6,4.9-4.3,7.8s-0.8,6-0.2,9c0.7,3,2,5.7,3.9,8.1s4.4,4.2,7.2,5.4c1,0.5,1.9,1.1,2.6,1.9
		s1.2,1.7,1.4,2.7l2.7,12.5c0.4,1.7,0.1,3.3-0.9,4.8c-0.9,1.5-2.3,2.4-4,2.8l-14.2,3.1l-5.1-23.1l10.6-2.3c-2.4-1.7-4.5-3.8-6.1-6.3
		c-1.7-2.5-2.8-5.3-3.5-8.3s-0.8-6-0.3-9s1.4-5.7,2.9-8.4l-10.6,2.3L841.4,340z M865,375.8c-0.5-2.1-0.4-4.2,0.2-6.3
		c0.6-2.1,1.6-4,3-5.5c1.2-1.2,2-2.6,2.5-4.1s0.8-3.1,0.7-4.7c2.2,1.3,4.1,3.7,5.9,7.2s3,6.8,3.7,10s1,6.7,0.8,10.7s-0.9,6.9-2.3,9
		c-0.6-1.5-1.5-2.8-2.6-3.9c-1.1-1.2-2.5-2.1-4-2.7c-2-0.8-3.7-2.1-5.1-3.8C866.4,379.8,865.5,377.9,865,375.8z M870.4,344.8
		c-0.6-2.7-0.1-5.2,1.4-7.5s3.6-3.8,6.2-4.4c2.7-0.6,5.2-0.1,7.6,1.4c2.3,1.5,3.8,3.6,4.3,6.3c0.6,2.7,0.2,5.2-1.3,7.5
		s-3.6,3.8-6.3,4.4s-5.2,0.1-7.5-1.3C872.4,349.6,871,347.5,870.4,344.8z M882.8,401.7c-0.6-2.7-0.1-5.2,1.4-7.5s3.6-3.8,6.2-4.4
		c2.7-0.6,5.2-0.1,7.6,1.4c2.3,1.5,3.8,3.6,4.3,6.3c0.6,2.7,0.2,5.2-1.3,7.5s-3.6,3.8-6.3,4.4s-5.2,0.1-7.5-1.3
		C884.9,406.5,883.4,404.4,882.8,401.7z M887.2,370.9c-0.6-2.7-0.1-5.2,1.4-7.5s3.6-3.8,6.2-4.4c2.7-0.6,5.2-0.1,7.6,1.4
		s3.8,3.6,4.3,6.3c0.6,2.7,0.2,5.2-1.3,7.5s-3.6,3.8-6.3,4.4s-5.2,0.1-7.5-1.3C889.3,375.7,887.8,373.6,887.2,370.9z"/>
</g>
<g>
	<path class="st1" d="M850.6,487.7l36.6,3.3c1-3.4,3-6.2,6-8.3c3-2.2,6.4-3.1,10.2-2.7l27.9,2.5l-0.5,6l-27.9-2.5l-0.6,6.5l27.9,2.5
		l-0.5,6l-27.9-2.5l-0.6,6.5l27.9,2.5l-0.5,6l-27.9-2.5c-3.8-0.3-7-1.9-9.6-4.5c-2.5-2.7-4-5.8-4.4-9.3l-36.6-3.3L850.6,487.7z
		 M846.9,529.1l31.9,2.9l1-11.5l30.4,2.7c5.2,0.5,9.3,2.4,12.2,5.9s4.1,7.8,3.6,13.1l-79.6-7.1L846.9,529.1z"/>
</g>
<g>
	<path class="st1" d="M819,626.5l8.3,4.5l4.5-8.3l6.2,3.4l-4.5,8.3l10.5,5.8c3.8-5.2,8.9-8.5,15.3-9.9c6.3-1.4,12.3-0.5,18.1,2.6
		c6.3,3.4,10.4,8.6,12.4,15.4c2,6.8,1.3,13.4-2.2,19.7c-3.4,6.3-8.5,10.4-15.4,12.4c-6.8,2-13.4,1.3-19.6-2.1
		c-5.7-3.1-9.7-7.7-12-13.8s-2.2-12.1,0.1-18.2l-10.5-5.8l-4.5,8.3l-6.2-3.4l4.5-8.3l-8.3-4.5L819,626.5z M848.2,646.5
		c-2.5,4.5-3,9.3-1.5,14.3s4.5,8.7,9,11.2s9.3,3,14.3,1.5s8.7-4.5,11.2-9s3-9.3,1.5-14.3s-4.5-8.7-9-11.2s-9.3-3-14.3-1.5
		S850.7,642,848.2,646.5z"/>
</g>
<g>
	<path class="st1" d="M760.5,704.4l32,35.9l-13,27.5l-5.3-6l-9.5,19.4l-8-9l-23.9,21.3l-31.9-35.8L760.5,704.4z M760,712.9
		l-50.7,45.2l23.9,26.9l23.9-21.3l6.1,6.9l9.6-19.3l5.3,5.9l7.2-15.9L760,712.9z M743.5,741l-4.5,4l10.6,11.9l4.5-4L743.5,741z
		 M755.4,730.4l-4.5,4l10.6,11.9l4.5-4L755.4,730.4z M731.6,751.7l-4.5,4l10.6,11.9l4.5-4L731.6,751.7z M732.7,793.5l13.4-12
		l18.3,26.5l-7.5,6.7L732.7,793.5z M760,712.9l-50.7,45.2L760,712.9z"/>
</g>
<g>
	<path class="st1" d="M617.2,786.8c5.2-2,10.4-2.9,15.7-2.7s10.3,1.3,14.9,3.4c4.7,2.1,8.8,5,12.6,8.7s6.6,8.2,8.6,13.4
		s2.9,10.4,2.7,15.7s-1.3,10.3-3.4,14.9c-2.1,4.7-5,8.8-8.7,12.6c-3.8,3.7-8.2,6.6-13.4,8.6s-10.4,2.9-15.7,2.7s-10.3-1.3-14.9-3.4
		c-4.7-2.1-8.8-5-12.6-8.7c-3.7-3.8-6.6-8.2-8.6-13.4s-2.9-10.4-2.7-15.7s1.3-10.3,3.4-14.9c2.1-4.7,5-8.8,8.7-12.6
		C607.6,791.6,612,788.8,617.2,786.8z M623.4,790.9l3,7.6c2.2-0.8,4.3-0.7,6.4,0.3c2.1,1,3.6,2.6,4.4,4.8l1.6,4.1l26.5,11.7
		c-0.2-1.4-0.4-2.7-0.8-3.9c-0.3-1.3-0.8-2.5-1.2-3.8c-3.1-8.1-8.5-14.1-16.1-18.1C639.7,789.7,631.7,788.8,623.4,790.9z
		 M599.9,811.6c-0.8,2-1.4,4.1-1.7,6.1s-0.6,4.2-0.6,6.3s0.2,4.2,0.6,6.3s1,4.1,1.8,6.1c2.6,6.6,6.7,11.9,12.4,15.8s12,6,19,6.2
		l-0.7-1.7c-0.8-2.2-0.8-4.4,0-6.6s2.4-3.7,4.6-4.6l8.1-3.2l-3.1-8.1c-0.4-1.1-0.3-2.1,0.2-3.1c0.6-1,1.4-1.7,2.4-2.1l7.7-3
		l-3.2-8.2l-24,9.3c-1.1,0.4-2.1,0.3-3.1-0.2s-1.7-1.3-2.1-2.4l-4.6-11.8l-4,1.6c-1.8,0.7-3.6,0.8-5.4,0.3S601.1,813.1,599.9,811.6z
		"/>
</g>
<g>
	<path class="st1" d="M492.3,819.6c-0.3,0-0.6,0.1-1,0.3s-0.7,0.4-0.9,0.6l-28.9,32.3c-0.7,0.8-1.3,1.8-1.6,2.8
		c-0.3,1-0.5,2-0.4,3.1c0.1,1,0.3,2,0.8,3.1c0.4,1,1.1,1.9,1.9,2.6l17.2,15.5c0.8,0.7,1.8,1.3,2.8,1.6s2.1,0.5,3.1,0.4s2-0.3,3-0.8
		c1-0.4,1.8-1.1,2.6-1.9l1.5-1.7l-7.8-7c-0.8-0.8-1.6-1.8-2.2-2.8c-0.7-1.1-1-2.3-1.1-3.6c-0.1-2.3,0.7-4.4,2.3-6.2
		c1.7-1.9,3.7-2.8,6-3c1.5-0.1,2.8,0.1,3.8,0.5s2,1,2.9,1.8l7,6.3l15.5-17.3c0.3-0.3,0.5-0.6,0.6-1c0.1-0.3,0.1-0.7,0.1-1.1
		c0-0.8-0.3-1.4-0.9-1.9c-0.5-0.5-1.2-0.7-2-0.7c-0.4,0-0.7,0.1-1,0.3s-0.6,0.4-0.8,0.7L503,855.7l-4-3.6l11.8-13.1
		c0.3-0.3,0.5-0.7,0.6-1s0.1-0.7,0.1-1.1c0-0.7-0.3-1.3-0.9-1.9s-1.2-0.8-1.9-0.7c-0.4,0-0.7,0.1-1,0.3s-0.6,0.4-0.8,0.6l-11.8,13.2
		l-4-3.6l11.8-13.1c0.2-0.3,0.4-0.6,0.5-1s0.2-0.8,0.2-1.1c0-0.7-0.3-1.3-0.9-1.9s-1.2-0.8-1.9-0.7c-0.4,0-0.7,0.1-1,0.2
		c-0.3,0.1-0.6,0.4-0.9,0.7L486.7,841l-4-3.6l11.8-13.2c0.3-0.3,0.5-0.7,0.6-1c0.1-0.4,0.1-0.7,0.1-1c0-0.8-0.3-1.5-0.8-2
		C493.9,819.8,493.2,819.5,492.3,819.6z M492,814.1c2-0.1,3.8,0.5,5.5,1.9s2.7,3.2,3.1,5.3c2.1,0.2,3.8,0.9,5.3,2.3
		c1.5,1.3,2.4,3,2.8,5c2.1,0.2,3.8,1,5.3,2.3c1.4,1.3,2.4,3,2.8,5c2.3,0.2,4.1,1,5.7,2.4s2.4,3.2,2.5,5.3c0.1,1-0.1,2.1-0.4,3.1
		c-0.3,1.1-0.9,2-1.6,2.8l-19.2,21.4l-10.5-9.4c-0.5-0.5-1.1-0.8-1.6-1c-0.6-0.2-1.2-0.3-1.7-0.3c-0.8,0-1.5,0.4-2.2,1.2
		c-0.7,0.7-1,1.5-0.9,2.3c0,0.4,0.1,0.8,0.4,1.2c0.2,0.4,0.6,0.9,1.1,1.4l13.7,12.3c0.8,0.7,1.8,1.3,2.8,1.6s2.1,0.5,3.1,0.4
		s2-0.3,3-0.8s1.8-1.1,2.6-1.9l13-14.5c0.8-0.9,1.3-1.8,1.6-2.8s0.4-2,0.4-3.2s-0.3-2.4-0.9-3.5c-0.6-1.1-1.3-2.1-2-2.9l3.7-4.1
		c1.3,1.3,2.4,2.8,3.2,4.7c0.9,1.8,1.3,3.7,1.4,5.7c0.1,1.8-0.2,3.6-0.8,5.3s-1.5,3.2-2.7,4.6l-13,14.5c-1.3,1.4-2.7,2.5-4.4,3.2
		s-3.4,1.1-5.1,1.2c-1.8,0.1-3.5-0.1-5.2-0.7c-1.7-0.5-3.2-1.4-4.7-2.7l-1.7-1.5l-1.5,1.7c-1.3,1.4-2.7,2.5-4.4,3.2
		c-1.7,0.7-3.4,1.1-5.1,1.2s-3.5-0.1-5.2-0.7s-3.2-1.4-4.7-2.7l-17.1-15.4c-1.4-1.3-2.5-2.7-3.2-4.4c-0.8-1.7-1.2-3.4-1.3-5.1
		c-0.1-1.8,0.1-3.5,0.7-5.2s1.5-3.3,2.7-4.7l28.9-32.3c0.7-0.8,1.6-1.5,2.6-2S491,814.2,492,814.1z"/>
</g>
<g>
	<path class="st1" d="M405,815.4l-2.4,5.5l-33.9-14.7l-19.2,44.4c1.4,1.2,2.4,2.8,3.1,4.6s1,3.6,0.9,5.4l14.6,6.3l0.5-32.7
		c1.3-2.7,3.4-4.6,6.6-5.5c3.1-0.9,6.3-0.7,9.6,0.8s5.7,3.6,7.1,6.5s1.6,5.8,0.5,8.6l-23.5,22.7l7.8,3.4l-2.4,5.5L351,866
		c-1.7,1.8-3.7,3-6,3.6c-2.4,0.6-4.7,0.4-6.9-0.5c-2.2-1-3.9-2.5-5.1-4.7c-1.2-2.1-1.7-4.4-1.5-6.9l-23.3-10.1l2.4-5.5l7.8,3.4
		l0.5-32.7c1.3-2.7,3.4-4.6,6.6-5.5c3.1-0.9,6.3-0.7,9.6,0.8c3.3,1.4,5.7,3.6,7.1,6.5c1.5,2.9,1.6,5.8,0.5,8.6l-23.5,22.7l14.6,6.3
		c1.2-1.4,2.8-2.4,4.6-3.1s3.6-1,5.4-0.9l19.2-44.4L329.2,789l2.4-5.5L405,815.4z M337.7,821l-13.8-6l-0.4,19.9L337.7,821z
		 M387.2,842.5l-13.8-6l-0.4,19.9L387.2,842.5z M344.4,854.5c-1.3-0.6-2.6-0.6-3.9,0c-1.3,0.5-2.2,1.4-2.7,2.6
		c-0.6,1.3-0.6,2.6-0.1,3.8s1.4,2.2,2.7,2.7c1.2,0.5,2.5,0.6,3.8,0.1s2.2-1.4,2.8-2.7c0.5-1.2,0.5-2.5,0-3.8
		C346.5,855.9,345.7,855,344.4,854.5z"/>
</g>
<g>
	<path class="st1" d="M244.9,763.2l-17.2,26.5l16.6-3.5l1.2,5.8l-26.7,5.7l-5.7-26.7l5.8-1.2l3.6,16.8l17.2-26.6L244.9,763.2z
		 M241.1,716.7l5.6,26.8l-5.8,1.2l-3.5-16.6l-17.2,26.5l-5-3.3l17.2-26.6l-16.8,3.5l-1.2-5.8L241.1,716.7z"/>
</g>
<g>
	<path class="st1" d="M155.7,685l-14.3,9.1c-1.3,0.9-2.9,1.1-4.5,0.7c-1.7-0.4-2.9-1.2-3.8-2.6L96.5,635c-0.9-1.3-1.1-2.9-0.7-4.5
		c0.4-1.7,1.2-2.9,2.6-3.8l14.3-9.1l3.2,5.1l-14.3,9.1l36.6,57.3l14.3-9.1L155.7,685z M187,657.9c0.9,1.3,1.1,2.9,0.7,4.5
		c-0.4,1.7-1.2,2.9-2.6,3.8l-14.3,9.1l-3.2-5.1l14.3-9.1l-36.6-57.3l-14.3,9.1l-3.2-5.1l14.3-9.1c1.3-0.9,2.9-1.1,4.5-0.7
		s2.9,1.2,3.8,2.6L187,657.9z M162.1,643c-0.3-0.4-0.7-0.8-1.2-1.1s-1-0.4-1.6-0.3l-29.6,3.1l6.1-10.2c0.3-0.5,0.4-1,0.4-1.6
		s-0.2-1.1-0.5-1.5l-12.9-20.2l-5.1,3.2l11.9,18.6l-8.2,13.8c-0.3,0.5-0.4,1-0.4,1.6c0.1,0.5,0.3,1,0.5,1.5c0.3,0.4,0.7,0.8,1.1,1.1
		c0.5,0.3,1,0.4,1.6,0.4l29.5-3l-6.1,10.2c-0.3,0.5-0.4,1-0.4,1.6s0.2,1.1,0.5,1.5l12.9,20.2l5.1-3.2l-11.9-18.6l8.3-13.8
		c0.3-0.5,0.4-1.1,0.4-1.6S162.4,643.4,162.1,643z"/>
</g>
<g>
	<path class="st1" d="M135.8,539.6l-3.1,5.3L97.2,524l11.9-20.4l-29.4-17.2l3.2,12.3l-5.8,1.5l-5.8-22l21.9-5.8l1.5,5.7l-11.9,3.1
		l34.6,20.2L105.6,522L135.8,539.6z"/>
</g>
<g>
	<path class="st1" d="M117.3,414.6l-5.8-1.4c0.6-2.5,0.3-4.6-0.8-6.5c-1.1-1.9-1.3-4.3-0.6-7.2c0.7-2.9,2.1-5,4.3-6.2
		c2.1-1.2,3.5-3.1,4.1-5.6s0.2-4.8-1.1-7s-1.7-4.6-1-7.5s2.1-5,4.3-6.2c2.1-1.2,3.5-3.1,4.1-5.6s0.2-4.8-1.1-6.9s-1.7-4.6-1-7.5
		s2-5,3.8-6.1c1.9-1.2,3.1-3,3.7-5.4l5.8,1.4c-0.7,3-2,5.1-3.9,6.2c-1.8,1.1-3.1,2.9-3.6,5.3c-0.6,2.5-0.2,4.7,1.1,6.9
		c1.3,2.1,1.7,4.6,1,7.5s-2.1,5-4.3,6.3s-3.5,3.1-4.1,5.6s-0.2,4.8,1.1,6.9c1.3,2.1,1.7,4.7,1,7.6s-2.1,5-4.3,6.2
		c-2.1,1.2-3.5,3.1-4.1,5.5s-0.3,4.6,0.8,6.4C117.9,409.2,118.1,411.6,117.3,414.6z M101.8,410.9l-5.8-1.4c0.6-2.5,0.3-4.6-0.8-6.5
		c-1.1-1.9-1.3-4.3-0.6-7.2c0.7-2.9,2.1-5,4.3-6.2c2.1-1.2,3.5-3.1,4.1-5.6s0.2-4.8-1.1-7c-1.3-2.1-1.7-4.6-1-7.5s2.1-5,4.3-6.2
		c2.1-1.2,3.5-3.1,4.1-5.6s0.2-4.8-1.1-6.9c-1.4-2.1-1.7-4.6-1-7.5s2-5,3.8-6.1s3.1-3,3.7-5.4l5.8,1.4c-0.7,3-2,5.1-3.9,6.2
		c-1.8,1.1-3.1,2.9-3.6,5.3c-0.6,2.5-0.2,4.7,1.1,6.9c1.3,2.1,1.7,4.6,1,7.5s-2.1,5-4.3,6.3c-2.2,1.3-3.5,3.1-4.1,5.6
		s-0.2,4.8,1.1,6.9c1.3,2.1,1.7,4.7,1,7.6s-2.1,5-4.3,6.2c-2.1,1.2-3.5,3.1-4.1,5.5c-0.6,2.5-0.3,4.6,0.8,6.4
		S102.5,407.9,101.8,410.9z M86.2,407.2l-5.8-1.4c0.6-2.5,0.3-4.6-0.8-6.5c-1.1-1.9-1.3-4.3-0.6-7.2c0.7-2.9,2.1-5,4.3-6.2
		c2.1-1.2,3.5-3.1,4.1-5.6s0.2-4.8-1.1-7s-1.7-4.6-1-7.5s2.1-5,4.3-6.2c2.1-1.2,3.5-3.1,4.1-5.6s0.2-4.8-1.1-6.9s-1.7-4.6-1-7.5
		s2-5,3.8-6.1c1.9-1.2,3.1-3,3.7-5.4l5.8,1.4c-0.7,3-2,5.1-3.9,6.2c-1.8,1.1-3.1,2.9-3.6,5.3c-0.6,2.5-0.2,4.7,1.1,6.9
		c1.3,2.1,1.7,4.6,1,7.5s-2.1,5-4.3,6.3c-2.2,1.3-3.5,3.1-4.1,5.6s-0.2,4.8,1.1,6.9c1.3,2.1,1.7,4.7,1,7.6s-2.1,5-4.3,6.2
		s-3.5,3.1-4.1,5.5c-0.6,2.5-0.3,4.6,0.8,6.4C86.8,401.7,87,404.1,86.2,407.2z"/>
</g>
<g>
	<path class="st1" d="M197.9,291.4l-4.9-3.5l12.8-17.9l-14.6-10.5l-5.2,7.3c-3.2,4.5-7.6,7.2-13,8.1s-10.4-0.3-14.9-3.5
		c-3.2-2.3-5.6-5.4-7.1-9.1s-1.7-7.6-0.8-11.5c-3.7-3.4-5.8-7.6-6.4-12.6c-0.5-5,0.7-9.6,3.6-13.7c3-4.1,6.9-6.7,11.8-7.8
		c4.9-1.1,9.6-0.4,14,2c3.4-2.1,7.1-3.1,11.2-2.9c4,0.2,7.6,1.4,10.9,3.8c4.5,3.2,7.2,7.6,8.1,13c0.9,5.4-0.3,10.4-3.5,14.9
		l-5.2,7.3l14.6,10.5l13.4-18.7l4.9,3.5L197.9,291.4z M181.1,263.4l14-19.5c2.3-3.1,3.1-6.6,2.4-10.4s-2.5-6.8-5.7-9.1
		c-2.3-1.6-4.8-2.5-7.6-2.5s-5.4,0.6-7.8,2l-3,1.8l-3.1-1.7c-3.1-1.7-6.4-2.1-9.8-1.4c-3.4,0.8-6.1,2.6-8.2,5.4s-2.9,6-2.5,9.5
		s1.9,6.4,4.5,8.9l2.6,2.4l-0.7,3.4c-0.6,2.7-0.4,5.4,0.6,8s2.5,4.8,4.8,6.4c3.1,2.3,6.6,3.1,10.4,2.4
		C175.8,268.4,178.8,266.5,181.1,263.4z"/>
</g>
</svg>
